<?xml version="1.0" standalone="no"?>
<!DOCTYPE svg PUBLIC "-//W3C//DTD SVG 20010904//EN"
 "http://www.w3.org/TR/2001/REC-SVG-20010904/DTD/svg10.dtd">
<svg version="1.0" xmlns="http://www.w3.org/2000/svg"
 width="260.000000pt" height="260.000000pt" viewBox="0 0 260.000000 260.000000"
 preserveAspectRatio="xMidYMid meet">
<metadata>
Created by potrace 1.11, written by Peter Selinger 2001-2013
</metadata>
<g transform="translate(0.000000,260.000000) scale(0.100000,-0.100000)"
fill="#000000" stroke="none">
<path d="M370 1213 l0 -643 45 0 45 0 0 280 0 280 218 0 c248 1 274 3 360 33
143 48 222 172 217 342 -3 89 -17 139 -56 198 -40 61 -99 103 -179 129 -59 18
-92 20 -357 22 l-293 2 0 -643z m600 542 c107 -28 172 -97 187 -197 16 -109
-5 -199 -58 -256 -68 -73 -121 -84 -406 -86 l-233 -1 0 278 0 278 229 -1 c159
-1 245 -6 281 -15z"/>
<path d="M1770 1840 c-4 -8 -58 -134 -120 -280 -62 -146 -150 -355 -197 -465
-47 -110 -114 -270 -150 -355 -36 -85 -67 -158 -70 -162 -2 -5 18 -8 45 -8
l49 0 69 163 69 162 358 0 359 0 67 -160 67 -160 52 -3 51 -3 -18 43 c-11 24
-87 205 -171 403 -84 198 -158 374 -165 390 -7 17 -21 50 -32 74 -10 24 -50
118 -89 210 l-70 166 -48 0 c-33 0 -50 -4 -56 -15z m215 -475 c81 -192 149
-357 152 -366 4 -14 -27 -16 -316 -16 l-320 0 19 47 c17 42 230 550 283 674
17 40 22 45 28 30 4 -11 73 -176 154 -369z"/>
</g>
</svg>
